<mxfile host="app.diagrams.net" agent="Mozilla/5.0 (Windows NT 10.0; Win64; x64) AppleWebKit/537.36 (KHTML, like Gecko) Chrome/135.0.0.0 Safari/537.36" version="26.2.14">
  <diagram id="C5RBs43oDa-KdzZeNtuy" name="Page-1">
    <mxGraphModel dx="2677" dy="955" grid="1" gridSize="10" guides="1" tooltips="1" connect="1" arrows="1" fold="1" page="1" pageScale="1" pageWidth="827" pageHeight="1169" math="0" shadow="0">
      <root>
        <mxCell id="WIyWlLk6GJQsqaUBKTNV-0" />
        <mxCell id="WIyWlLk6GJQsqaUBKTNV-1" parent="WIyWlLk6GJQsqaUBKTNV-0" />
        <mxCell id="d4C7YxX0TtFzstMtgSSq-66" value="" style="rounded=1;whiteSpace=wrap;html=1;fillColor=none;fontColor=#ffffff;strokeColor=light-dark(#02006b, #fcb99e);dashed=1;dashPattern=12 12;strokeWidth=3;movable=0;resizable=0;rotatable=0;deletable=0;editable=0;locked=1;connectable=0;" parent="WIyWlLk6GJQsqaUBKTNV-1" vertex="1">
          <mxGeometry x="-340" y="170" width="1290" height="1000" as="geometry" />
        </mxCell>
        <mxCell id="d4C7YxX0TtFzstMtgSSq-15" style="edgeStyle=orthogonalEdgeStyle;rounded=0;orthogonalLoop=1;jettySize=auto;html=1;entryX=0.5;entryY=0;entryDx=0;entryDy=0;exitX=0.5;exitY=1;exitDx=0;exitDy=0;" parent="WIyWlLk6GJQsqaUBKTNV-1" source="WIyWlLk6GJQsqaUBKTNV-3" target="d4C7YxX0TtFzstMtgSSq-6" edge="1">
          <mxGeometry relative="1" as="geometry">
            <mxPoint x="220" y="160" as="sourcePoint" />
          </mxGeometry>
        </mxCell>
        <mxCell id="d4C7YxX0TtFzstMtgSSq-71" value="question" style="edgeLabel;html=1;align=center;verticalAlign=middle;resizable=0;points=[];rotation=-90;fontSize=14;" parent="d4C7YxX0TtFzstMtgSSq-15" vertex="1" connectable="0">
          <mxGeometry x="-0.3265" y="-1" relative="1" as="geometry">
            <mxPoint x="1" y="26" as="offset" />
          </mxGeometry>
        </mxCell>
        <mxCell id="WIyWlLk6GJQsqaUBKTNV-3" value="User" style="rounded=1;whiteSpace=wrap;html=1;fontSize=12;glass=0;strokeWidth=1;shadow=0;fillColor=#dae8fc;strokeColor=#6c8ebf;" parent="WIyWlLk6GJQsqaUBKTNV-1" vertex="1">
          <mxGeometry x="160" y="100" width="120" height="40" as="geometry" />
        </mxCell>
        <mxCell id="d4C7YxX0TtFzstMtgSSq-2" value="State" style="swimlane;fontStyle=0;childLayout=stackLayout;horizontal=1;startSize=30;horizontalStack=0;resizeParent=1;resizeParentMax=0;resizeLast=0;collapsible=1;marginBottom=0;whiteSpace=wrap;html=1;" parent="WIyWlLk6GJQsqaUBKTNV-1" vertex="1">
          <mxGeometry x="250" y="190" width="140" height="60" as="geometry" />
        </mxCell>
        <mxCell id="d4C7YxX0TtFzstMtgSSq-3" value="- user prompt" style="text;strokeColor=none;fillColor=none;align=left;verticalAlign=middle;spacingLeft=4;spacingRight=4;overflow=hidden;points=[[0,0.5],[1,0.5]];portConstraint=eastwest;rotatable=0;whiteSpace=wrap;html=1;" parent="d4C7YxX0TtFzstMtgSSq-2" vertex="1">
          <mxGeometry y="30" width="140" height="30" as="geometry" />
        </mxCell>
        <mxCell id="d4C7YxX0TtFzstMtgSSq-14" style="edgeStyle=orthogonalEdgeStyle;rounded=0;orthogonalLoop=1;jettySize=auto;html=1;" parent="WIyWlLk6GJQsqaUBKTNV-1" source="d4C7YxX0TtFzstMtgSSq-6" target="d4C7YxX0TtFzstMtgSSq-8" edge="1">
          <mxGeometry relative="1" as="geometry" />
        </mxCell>
        <mxCell id="d4C7YxX0TtFzstMtgSSq-6" value="&lt;div&gt;Agent&lt;/div&gt;Accountant" style="ellipse;whiteSpace=wrap;html=1;fillColor=#fff2cc;strokeColor=#d6b656;" parent="WIyWlLk6GJQsqaUBKTNV-1" vertex="1">
          <mxGeometry x="160" y="301" width="120" height="80" as="geometry" />
        </mxCell>
        <mxCell id="d4C7YxX0TtFzstMtgSSq-7" value="Reasoning step by step.&lt;br&gt;Question to other agents.&lt;br&gt;Answer" style="text;html=1;align=center;verticalAlign=middle;whiteSpace=wrap;rounded=0;fontStyle=1;fontSize=14;" parent="WIyWlLk6GJQsqaUBKTNV-1" vertex="1">
          <mxGeometry x="290" y="308.5" width="210" height="65" as="geometry" />
        </mxCell>
        <mxCell id="d4C7YxX0TtFzstMtgSSq-45" style="edgeStyle=orthogonalEdgeStyle;rounded=0;orthogonalLoop=1;jettySize=auto;html=1;" parent="WIyWlLk6GJQsqaUBKTNV-1" source="d4C7YxX0TtFzstMtgSSq-8" target="d4C7YxX0TtFzstMtgSSq-32" edge="1">
          <mxGeometry relative="1" as="geometry" />
        </mxCell>
        <mxCell id="d4C7YxX0TtFzstMtgSSq-8" value="Agent&lt;div&gt;Selector&lt;/div&gt;" style="ellipse;whiteSpace=wrap;html=1;fillColor=#f5f5f5;fontColor=#333333;strokeColor=#666666;" parent="WIyWlLk6GJQsqaUBKTNV-1" vertex="1">
          <mxGeometry x="160" y="509" width="120" height="80" as="geometry" />
        </mxCell>
        <mxCell id="d4C7YxX0TtFzstMtgSSq-16" value="State" style="swimlane;fontStyle=0;childLayout=stackLayout;horizontal=1;startSize=30;horizontalStack=0;resizeParent=1;resizeParentMax=0;resizeLast=0;collapsible=1;marginBottom=0;whiteSpace=wrap;html=1;" parent="WIyWlLk6GJQsqaUBKTNV-1" vertex="1">
          <mxGeometry x="500" y="270" width="140" height="210" as="geometry" />
        </mxCell>
        <mxCell id="d4C7YxX0TtFzstMtgSSq-17" value="- user prompt" style="text;strokeColor=none;fillColor=none;align=left;verticalAlign=middle;spacingLeft=4;spacingRight=4;overflow=hidden;points=[[0,0.5],[1,0.5]];portConstraint=eastwest;rotatable=0;whiteSpace=wrap;html=1;" parent="d4C7YxX0TtFzstMtgSSq-16" vertex="1">
          <mxGeometry y="30" width="140" height="30" as="geometry" />
        </mxCell>
        <mxCell id="d4C7YxX0TtFzstMtgSSq-18" value="- reasoning" style="text;strokeColor=none;fillColor=none;align=left;verticalAlign=middle;spacingLeft=4;spacingRight=4;overflow=hidden;points=[[0,0.5],[1,0.5]];portConstraint=eastwest;rotatable=0;whiteSpace=wrap;html=1;" parent="d4C7YxX0TtFzstMtgSSq-16" vertex="1">
          <mxGeometry y="60" width="140" height="30" as="geometry" />
        </mxCell>
        <mxCell id="d4C7YxX0TtFzstMtgSSq-51" value="- next agent" style="text;strokeColor=none;fillColor=none;align=left;verticalAlign=middle;spacingLeft=4;spacingRight=4;overflow=hidden;points=[[0,0.5],[1,0.5]];portConstraint=eastwest;rotatable=0;whiteSpace=wrap;html=1;" parent="d4C7YxX0TtFzstMtgSSq-16" vertex="1">
          <mxGeometry y="90" width="140" height="30" as="geometry" />
        </mxCell>
        <mxCell id="bv_R_TwXGzckyiOH8gsi-0" value="- agent prompt" style="text;strokeColor=none;fillColor=none;align=left;verticalAlign=middle;spacingLeft=4;spacingRight=4;overflow=hidden;points=[[0,0.5],[1,0.5]];portConstraint=eastwest;rotatable=0;whiteSpace=wrap;html=1;" vertex="1" parent="d4C7YxX0TtFzstMtgSSq-16">
          <mxGeometry y="120" width="140" height="30" as="geometry" />
        </mxCell>
        <mxCell id="bv_R_TwXGzckyiOH8gsi-1" value="- answer (at the end)" style="text;strokeColor=none;fillColor=none;align=left;verticalAlign=middle;spacingLeft=4;spacingRight=4;overflow=hidden;points=[[0,0.5],[1,0.5]];portConstraint=eastwest;rotatable=0;whiteSpace=wrap;html=1;" vertex="1" parent="d4C7YxX0TtFzstMtgSSq-16">
          <mxGeometry y="150" width="140" height="30" as="geometry" />
        </mxCell>
        <mxCell id="bv_R_TwXGzckyiOH8gsi-6" value="- token usage history" style="text;strokeColor=none;fillColor=none;align=left;verticalAlign=middle;spacingLeft=4;spacingRight=4;overflow=hidden;points=[[0,0.5],[1,0.5]];portConstraint=eastwest;rotatable=0;whiteSpace=wrap;html=1;" vertex="1" parent="d4C7YxX0TtFzstMtgSSq-16">
          <mxGeometry y="180" width="140" height="30" as="geometry" />
        </mxCell>
        <mxCell id="d4C7YxX0TtFzstMtgSSq-21" value="Next agent?" style="text;html=1;align=center;verticalAlign=middle;whiteSpace=wrap;rounded=0;fontStyle=1;fontSize=14;" parent="WIyWlLk6GJQsqaUBKTNV-1" vertex="1">
          <mxGeometry x="275" y="516.5" width="150" height="65" as="geometry" />
        </mxCell>
        <mxCell id="d4C7YxX0TtFzstMtgSSq-36" style="edgeStyle=orthogonalEdgeStyle;rounded=0;orthogonalLoop=1;jettySize=auto;html=1;entryX=0.5;entryY=0;entryDx=0;entryDy=0;" parent="WIyWlLk6GJQsqaUBKTNV-1" source="d4C7YxX0TtFzstMtgSSq-32" target="d4C7YxX0TtFzstMtgSSq-33" edge="1">
          <mxGeometry relative="1" as="geometry" />
        </mxCell>
        <mxCell id="d4C7YxX0TtFzstMtgSSq-37" style="edgeStyle=orthogonalEdgeStyle;rounded=0;orthogonalLoop=1;jettySize=auto;html=1;" parent="WIyWlLk6GJQsqaUBKTNV-1" source="d4C7YxX0TtFzstMtgSSq-32" target="d4C7YxX0TtFzstMtgSSq-34" edge="1">
          <mxGeometry relative="1" as="geometry" />
        </mxCell>
        <mxCell id="d4C7YxX0TtFzstMtgSSq-38" style="edgeStyle=orthogonalEdgeStyle;rounded=0;orthogonalLoop=1;jettySize=auto;html=1;" parent="WIyWlLk6GJQsqaUBKTNV-1" source="d4C7YxX0TtFzstMtgSSq-32" target="d4C7YxX0TtFzstMtgSSq-35" edge="1">
          <mxGeometry relative="1" as="geometry" />
        </mxCell>
        <mxCell id="d4C7YxX0TtFzstMtgSSq-55" style="edgeStyle=orthogonalEdgeStyle;rounded=0;orthogonalLoop=1;jettySize=auto;html=1;entryX=0.5;entryY=0;entryDx=0;entryDy=0;" parent="WIyWlLk6GJQsqaUBKTNV-1" source="d4C7YxX0TtFzstMtgSSq-32" target="d4C7YxX0TtFzstMtgSSq-54" edge="1">
          <mxGeometry relative="1" as="geometry" />
        </mxCell>
        <mxCell id="d4C7YxX0TtFzstMtgSSq-56" value="Final Answer" style="edgeLabel;html=1;align=center;verticalAlign=middle;resizable=0;points=[];" parent="d4C7YxX0TtFzstMtgSSq-55" vertex="1" connectable="0">
          <mxGeometry x="0.1992" relative="1" as="geometry">
            <mxPoint as="offset" />
          </mxGeometry>
        </mxCell>
        <mxCell id="d4C7YxX0TtFzstMtgSSq-32" value="" style="rhombus;whiteSpace=wrap;html=1;fillColor=#f5f5f5;fontColor=#333333;strokeColor=#666666;" parent="WIyWlLk6GJQsqaUBKTNV-1" vertex="1">
          <mxGeometry x="180" y="714" width="80" height="80" as="geometry" />
        </mxCell>
        <mxCell id="d4C7YxX0TtFzstMtgSSq-42" style="edgeStyle=orthogonalEdgeStyle;rounded=0;orthogonalLoop=1;jettySize=auto;html=1;entryX=0;entryY=0.5;entryDx=0;entryDy=0;dashed=1;" parent="WIyWlLk6GJQsqaUBKTNV-1" source="d4C7YxX0TtFzstMtgSSq-33" target="d4C7YxX0TtFzstMtgSSq-8" edge="1">
          <mxGeometry relative="1" as="geometry">
            <Array as="points">
              <mxPoint x="-40" y="1129" />
              <mxPoint x="-270" y="1129" />
              <mxPoint x="-270" y="549" />
            </Array>
          </mxGeometry>
        </mxCell>
        <mxCell id="d4C7YxX0TtFzstMtgSSq-33" value="Agent&lt;div&gt;Deductions&lt;/div&gt;" style="ellipse;whiteSpace=wrap;html=1;fillColor=#d5e8d4;strokeColor=#82b366;" parent="WIyWlLk6GJQsqaUBKTNV-1" vertex="1">
          <mxGeometry x="-100" y="929" width="120" height="80" as="geometry" />
        </mxCell>
        <mxCell id="d4C7YxX0TtFzstMtgSSq-43" style="edgeStyle=orthogonalEdgeStyle;rounded=0;orthogonalLoop=1;jettySize=auto;html=1;dashed=1;endArrow=none;startFill=0;" parent="WIyWlLk6GJQsqaUBKTNV-1" source="d4C7YxX0TtFzstMtgSSq-34" edge="1">
          <mxGeometry relative="1" as="geometry">
            <mxPoint x="-40" y="1128.9999999999998" as="targetPoint" />
            <Array as="points">
              <mxPoint x="220" y="1129" />
            </Array>
          </mxGeometry>
        </mxCell>
        <mxCell id="d4C7YxX0TtFzstMtgSSq-34" value="Agent&lt;br&gt;Percentage" style="ellipse;whiteSpace=wrap;html=1;fillColor=#d5e8d4;strokeColor=#82b366;" parent="WIyWlLk6GJQsqaUBKTNV-1" vertex="1">
          <mxGeometry x="160" y="929" width="120" height="80" as="geometry" />
        </mxCell>
        <mxCell id="d4C7YxX0TtFzstMtgSSq-44" style="edgeStyle=orthogonalEdgeStyle;rounded=0;orthogonalLoop=1;jettySize=auto;html=1;dashed=1;endArrow=none;startFill=0;" parent="WIyWlLk6GJQsqaUBKTNV-1" source="d4C7YxX0TtFzstMtgSSq-35" edge="1">
          <mxGeometry relative="1" as="geometry">
            <mxPoint x="220" y="1129.0000000000002" as="targetPoint" />
            <Array as="points">
              <mxPoint x="500" y="1129" />
            </Array>
          </mxGeometry>
        </mxCell>
        <mxCell id="d4C7YxX0TtFzstMtgSSq-35" value="Agent&amp;nbsp;&lt;div&gt;Calculator&lt;/div&gt;" style="ellipse;whiteSpace=wrap;html=1;fillColor=#d5e8d4;strokeColor=#82b366;" parent="WIyWlLk6GJQsqaUBKTNV-1" vertex="1">
          <mxGeometry x="440" y="929" width="120" height="80" as="geometry" />
        </mxCell>
        <mxCell id="d4C7YxX0TtFzstMtgSSq-64" style="edgeStyle=orthogonalEdgeStyle;rounded=0;orthogonalLoop=1;jettySize=auto;html=1;" parent="WIyWlLk6GJQsqaUBKTNV-1" source="d4C7YxX0TtFzstMtgSSq-54" target="d4C7YxX0TtFzstMtgSSq-63" edge="1">
          <mxGeometry relative="1" as="geometry" />
        </mxCell>
        <mxCell id="d4C7YxX0TtFzstMtgSSq-65" value="Answer" style="edgeLabel;html=1;align=center;verticalAlign=middle;resizable=0;points=[];rotation=-90;fontSize=14;" parent="d4C7YxX0TtFzstMtgSSq-64" vertex="1" connectable="0">
          <mxGeometry x="0.196" y="-3" relative="1" as="geometry">
            <mxPoint x="3" y="-59" as="offset" />
          </mxGeometry>
        </mxCell>
        <mxCell id="d4C7YxX0TtFzstMtgSSq-54" value="Agent&lt;div&gt;Pricer&lt;/div&gt;" style="ellipse;whiteSpace=wrap;html=1;fillColor=#f8cecc;strokeColor=#b85450;" parent="WIyWlLk6GJQsqaUBKTNV-1" vertex="1">
          <mxGeometry x="620" y="929" width="120" height="80" as="geometry" />
        </mxCell>
        <mxCell id="d4C7YxX0TtFzstMtgSSq-63" value="User" style="rounded=1;whiteSpace=wrap;html=1;fontSize=12;glass=0;strokeWidth=1;shadow=0;fillColor=#dae8fc;strokeColor=#6c8ebf;" parent="WIyWlLk6GJQsqaUBKTNV-1" vertex="1">
          <mxGeometry x="620" y="1210" width="120" height="40" as="geometry" />
        </mxCell>
        <mxCell id="d4C7YxX0TtFzstMtgSSq-67" value="&lt;font style=&quot;font-size: 28px;&quot;&gt;Agents System&lt;/font&gt;" style="text;html=1;align=center;verticalAlign=middle;whiteSpace=wrap;rounded=0;fontColor=#02006B;" parent="WIyWlLk6GJQsqaUBKTNV-1" vertex="1">
          <mxGeometry x="-240" y="251" width="60" height="30" as="geometry" />
        </mxCell>
        <mxCell id="d4C7YxX0TtFzstMtgSSq-73" value="" style="shape=image;verticalLabelPosition=bottom;labelBackgroundColor=default;verticalAlign=top;aspect=fixed;imageAspect=0;image=https://t3.ftcdn.net/jpg/07/41/08/12/360_F_741081263_IWWaoUZLB20TnrueRp9HITVQMgoXVbN2.jpg;" parent="WIyWlLk6GJQsqaUBKTNV-1" vertex="1">
          <mxGeometry x="90" y="308.5" width="60" height="60" as="geometry" />
        </mxCell>
        <mxCell id="d4C7YxX0TtFzstMtgSSq-77" value="" style="shape=image;verticalLabelPosition=bottom;labelBackgroundColor=default;verticalAlign=top;aspect=fixed;imageAspect=0;image=https://t3.ftcdn.net/jpg/07/41/08/12/360_F_741081263_IWWaoUZLB20TnrueRp9HITVQMgoXVbN2.jpg;" parent="WIyWlLk6GJQsqaUBKTNV-1" vertex="1">
          <mxGeometry x="-172.56" y="900" width="60" height="60" as="geometry" />
        </mxCell>
        <mxCell id="d4C7YxX0TtFzstMtgSSq-79" value="" style="shape=image;verticalLabelPosition=bottom;labelBackgroundColor=default;verticalAlign=top;aspect=fixed;imageAspect=0;image=https://t3.ftcdn.net/jpg/07/41/08/12/360_F_741081263_IWWaoUZLB20TnrueRp9HITVQMgoXVbN2.jpg;" parent="WIyWlLk6GJQsqaUBKTNV-1" vertex="1">
          <mxGeometry x="90" y="899" width="60" height="60" as="geometry" />
        </mxCell>
        <mxCell id="d4C7YxX0TtFzstMtgSSq-81" value="" style="shape=image;verticalLabelPosition=bottom;labelBackgroundColor=default;verticalAlign=top;aspect=fixed;imageAspect=0;image=https://t3.ftcdn.net/jpg/07/41/08/12/360_F_741081263_IWWaoUZLB20TnrueRp9HITVQMgoXVbN2.jpg;" parent="WIyWlLk6GJQsqaUBKTNV-1" vertex="1">
          <mxGeometry x="370" y="900" width="60" height="60" as="geometry" />
        </mxCell>
        <mxCell id="bv_R_TwXGzckyiOH8gsi-2" value="Deductions data" style="sketch=0;pointerEvents=1;shadow=0;dashed=0;html=1;strokeColor=none;fillColor=#505050;labelPosition=center;verticalLabelPosition=bottom;verticalAlign=top;outlineConnect=0;align=center;shape=mxgraph.office.users.csv_file;" vertex="1" parent="WIyWlLk6GJQsqaUBKTNV-1">
          <mxGeometry x="-167.44" y="980" width="54.88" height="40" as="geometry" />
        </mxCell>
        <mxCell id="bv_R_TwXGzckyiOH8gsi-4" value="Tax indexes data" style="sketch=0;pointerEvents=1;shadow=0;dashed=0;html=1;strokeColor=none;fillColor=#505050;labelPosition=center;verticalLabelPosition=bottom;verticalAlign=top;outlineConnect=0;align=center;shape=mxgraph.office.users.csv_file;" vertex="1" parent="WIyWlLk6GJQsqaUBKTNV-1">
          <mxGeometry x="95.12" y="980" width="54.88" height="40" as="geometry" />
        </mxCell>
        <mxCell id="bv_R_TwXGzckyiOH8gsi-5" value="" style="sketch=0;pointerEvents=1;shadow=0;dashed=0;html=1;strokeColor=none;fillColor=#505050;labelPosition=center;verticalLabelPosition=bottom;verticalAlign=top;outlineConnect=0;align=center;shape=mxgraph.office.concepts.calculator;" vertex="1" parent="WIyWlLk6GJQsqaUBKTNV-1">
          <mxGeometry x="384" y="982" width="32" height="46" as="geometry" />
        </mxCell>
        <mxCell id="bv_R_TwXGzckyiOH8gsi-7" value="State" style="swimlane;fontStyle=0;childLayout=stackLayout;horizontal=1;startSize=30;horizontalStack=0;resizeParent=1;resizeParentMax=0;resizeLast=0;collapsible=1;marginBottom=0;whiteSpace=wrap;html=1;" vertex="1" parent="WIyWlLk6GJQsqaUBKTNV-1">
          <mxGeometry x="-250" y="595" width="140" height="150" as="geometry" />
        </mxCell>
        <mxCell id="bv_R_TwXGzckyiOH8gsi-8" value="- user prompt" style="text;strokeColor=none;fillColor=none;align=left;verticalAlign=middle;spacingLeft=4;spacingRight=4;overflow=hidden;points=[[0,0.5],[1,0.5]];portConstraint=eastwest;rotatable=0;whiteSpace=wrap;html=1;" vertex="1" parent="bv_R_TwXGzckyiOH8gsi-7">
          <mxGeometry y="30" width="140" height="30" as="geometry" />
        </mxCell>
        <mxCell id="bv_R_TwXGzckyiOH8gsi-9" value="- reasoning" style="text;strokeColor=none;fillColor=none;align=left;verticalAlign=middle;spacingLeft=4;spacingRight=4;overflow=hidden;points=[[0,0.5],[1,0.5]];portConstraint=eastwest;rotatable=0;whiteSpace=wrap;html=1;" vertex="1" parent="bv_R_TwXGzckyiOH8gsi-7">
          <mxGeometry y="60" width="140" height="30" as="geometry" />
        </mxCell>
        <mxCell id="bv_R_TwXGzckyiOH8gsi-14" value="- agent answer / context" style="text;strokeColor=none;fillColor=none;align=left;verticalAlign=middle;spacingLeft=4;spacingRight=4;overflow=hidden;points=[[0,0.5],[1,0.5]];portConstraint=eastwest;rotatable=0;whiteSpace=wrap;html=1;" vertex="1" parent="bv_R_TwXGzckyiOH8gsi-7">
          <mxGeometry y="90" width="140" height="30" as="geometry" />
        </mxCell>
        <mxCell id="bv_R_TwXGzckyiOH8gsi-13" value="- token usage history" style="text;strokeColor=none;fillColor=none;align=left;verticalAlign=middle;spacingLeft=4;spacingRight=4;overflow=hidden;points=[[0,0.5],[1,0.5]];portConstraint=eastwest;rotatable=0;whiteSpace=wrap;html=1;" vertex="1" parent="bv_R_TwXGzckyiOH8gsi-7">
          <mxGeometry y="120" width="140" height="30" as="geometry" />
        </mxCell>
        <mxCell id="bv_R_TwXGzckyiOH8gsi-15" value="State" style="swimlane;fontStyle=0;childLayout=stackLayout;horizontal=1;startSize=30;horizontalStack=0;resizeParent=1;resizeParentMax=0;resizeLast=0;collapsible=1;marginBottom=0;whiteSpace=wrap;html=1;" vertex="1" parent="WIyWlLk6GJQsqaUBKTNV-1">
          <mxGeometry x="760" y="880" width="140" height="150" as="geometry" />
        </mxCell>
        <mxCell id="bv_R_TwXGzckyiOH8gsi-16" value="- user prompt" style="text;strokeColor=none;fillColor=none;align=left;verticalAlign=middle;spacingLeft=4;spacingRight=4;overflow=hidden;points=[[0,0.5],[1,0.5]];portConstraint=eastwest;rotatable=0;whiteSpace=wrap;html=1;" vertex="1" parent="bv_R_TwXGzckyiOH8gsi-15">
          <mxGeometry y="30" width="140" height="30" as="geometry" />
        </mxCell>
        <mxCell id="bv_R_TwXGzckyiOH8gsi-17" value="- reasoning" style="text;strokeColor=none;fillColor=none;align=left;verticalAlign=middle;spacingLeft=4;spacingRight=4;overflow=hidden;points=[[0,0.5],[1,0.5]];portConstraint=eastwest;rotatable=0;whiteSpace=wrap;html=1;" vertex="1" parent="bv_R_TwXGzckyiOH8gsi-15">
          <mxGeometry y="60" width="140" height="30" as="geometry" />
        </mxCell>
        <mxCell id="bv_R_TwXGzckyiOH8gsi-20" value="- answer" style="text;strokeColor=none;fillColor=none;align=left;verticalAlign=middle;spacingLeft=4;spacingRight=4;overflow=hidden;points=[[0,0.5],[1,0.5]];portConstraint=eastwest;rotatable=0;whiteSpace=wrap;html=1;" vertex="1" parent="bv_R_TwXGzckyiOH8gsi-15">
          <mxGeometry y="90" width="140" height="30" as="geometry" />
        </mxCell>
        <mxCell id="bv_R_TwXGzckyiOH8gsi-21" value="- final token usage" style="text;strokeColor=none;fillColor=none;align=left;verticalAlign=middle;spacingLeft=4;spacingRight=4;overflow=hidden;points=[[0,0.5],[1,0.5]];portConstraint=eastwest;rotatable=0;whiteSpace=wrap;html=1;" vertex="1" parent="bv_R_TwXGzckyiOH8gsi-15">
          <mxGeometry y="120" width="140" height="30" as="geometry" />
        </mxCell>
      </root>
    </mxGraphModel>
  </diagram>
</mxfile>
